<svg width="35" height="35" viewBox="0 0 35 35" fill="none" xmlns="http://www.w3.org/2000/svg">
<circle cx="17.5" cy="17.5" r="17.5" fill="#BD3381"/>
<path d="M21.75 9.5H14.25C12.1789 9.5 10.5 11.1789 10.5 13.25V20.75C10.5 22.8211 12.1789 24.5 14.25 24.5H21.75C23.8211 24.5 25.5 22.8211 25.5 20.75V13.25C25.5 11.1789 23.8211 9.5 21.75 9.5Z" stroke="white" stroke-linecap="round" stroke-linejoin="round"/>
<path d="M21.0001 16.5277C21.0926 17.1519 20.986 17.7894 20.6954 18.3495C20.4048 18.9096 19.9449 19.3638 19.3813 19.6475C18.8177 19.9312 18.1789 20.0299 17.5559 19.9297C16.9329 19.8294 16.3574 19.5353 15.9112 19.0891C15.465 18.6429 15.1709 18.0674 15.0706 17.4444C14.9704 16.8214 15.0691 16.1826 15.3528 15.619C15.6365 15.0554 16.0907 14.5955 16.6508 14.3049C17.2109 14.0143 17.8484 13.9077 18.4726 14.0002C19.1093 14.0946 19.6987 14.3913 20.1538 14.8465C20.609 15.3016 20.9057 15.891 21.0001 16.5277Z" stroke="white" stroke-linecap="round" stroke-linejoin="round"/>
<path d="M22.125 12.875H22.1325" stroke="white" stroke-linecap="round" stroke-linejoin="round"/>
</svg>
