<svg width="35" height="35" viewBox="0 0 35 35" fill="none" xmlns="http://www.w3.org/2000/svg">
<circle cx="17.5" cy="17.5" r="17.5" fill="#0073B1"/>
<path d="M21 14C22.1935 14 23.3381 14.4741 24.182 15.318C25.0259 16.1619 25.5 17.3065 25.5 18.5V23.75H22.5V18.5C22.5 18.1022 22.342 17.7206 22.0607 17.4393C21.7794 17.158 21.3978 17 21 17C20.6022 17 20.2206 17.158 19.9393 17.4393C19.658 17.7206 19.5 18.1022 19.5 18.5V23.75H16.5V18.5C16.5 17.3065 16.9741 16.1619 17.818 15.318C18.6619 14.4741 19.8065 14 21 14Z" fill="white"/>
<path d="M13.5 14.75H10.5V23.75H13.5V14.75Z" fill="white"/>
<path d="M12 12.5C12.8284 12.5 13.5 11.8284 13.5 11C13.5 10.1716 12.8284 9.5 12 9.5C11.1716 9.5 10.5 10.1716 10.5 11C10.5 11.8284 11.1716 12.5 12 12.5Z" fill="white"/>
</svg>
