<svg width="35" height="35" viewBox="0 0 35 35" fill="none" xmlns="http://www.w3.org/2000/svg">
<circle cx="17.5" cy="17.5" r="17.5" fill="#1DA1F2"/>
<path d="M26.25 10.2502C25.5318 10.7568 24.7366 11.1443 23.895 11.3977C23.4433 10.8784 22.843 10.5102 22.1753 10.3432C21.5076 10.1761 20.8046 10.2181 20.1616 10.4636C19.5185 10.709 18.9663 11.146 18.5797 11.7155C18.1931 12.285 17.9908 12.9595 18 13.6477V14.3977C16.682 14.4319 15.376 14.1396 14.1983 13.5468C13.0206 12.954 12.0077 12.0792 11.25 11.0002C11.25 11.0002 8.25 17.7502 15 20.7502C13.4554 21.7987 11.6154 22.3244 9.75 22.2502C16.5 26.0002 24.75 22.2502 24.75 13.6252C24.7493 13.4163 24.7292 13.2079 24.69 13.0027C25.4555 12.2478 25.9956 11.2948 26.25 10.2502Z" fill="white"/>
</svg>
